# xmcd
#
# Track frame offsets:
#	150
#	12845
#	25038
#	41195
#	53422
#	68249
#	78997
#	97357
#	112132
#	125750
#	141389
#	155316
#
# Disc length: 2257 seconds
#
# Revision: 0
# Processed by: cddbd v1.4PL0 Copyright (c) Steve Scherf et al.
# Submitted via: dBpowerAMP V4.0
#
DISCID=a508cf0c
DTITLE=Bret Graham - 2000
DYEAR=1900
DGENRE=Country
TTITLE0=Mason Dixon Line
TTITLE1=Love Everywhere
TTITLE2=Big Storm
TTITLE3=Did it Rain
TTITLE4=Mexico Smoke
TTITLE5=Cold As Your Heart
TTITLE6=Coon Huntin'
TTITLE7=Whiskey Do Your Thing
TTITLE8=Poor Dirt Farmer
TTITLE9=Long Way Back
TTITLE10=Dancin' The Blues
TTITLE11=Gruene Hall Blues
EXTD=
EXTT0=
EXTT1=
EXTT2=
EXTT3=
EXTT4=
EXTT5=
EXTT6=
EXTT7=
EXTT8=
EXTT9=
EXTT10=
EXTT11=
PLAYORDER=
